<svg viewBox="0 0 24 24" xmlns="http://www.w3.org/2000/svg"><path d="m7.401726 2.3422378c-2.2239037.9841957-3.6150265 2.5835137-4.4004904 3.7475144-.8517078 1.2680983-1.1829275 2.3185383-1.1829275 2.3280013v.01893c-.2460489.700293-.473171 1.7980495-.473171 1.8075135-.2649758 1.343805-.1419513 2.592977-.1419513 2.611904.00946.08517.018927.170341.02839.246049.02839-.33122.066244-.671903.1324879-1.012586.018927-.132488.3690734-2.015709 1.6939522-3.5109295.1419513-.217658 1.6750254-2.2333668 4.4951247-2.2333668.6056589 0 1.239708.094634 1.8737572.2839026h.018927c.037854.00946.8706352.3122929 1.1734642.4637076.283903.1419513.785464.3596099.794927.3596099h.01893c2.716002 1.3248787 5.06293 1.7507327 5.081857 1.7601967.671903.113561 1.277562.170341 1.816977.170341 1.078829 0 1.85483-.236585 2.261757-.69083.331217-.369076.293363-.7760032.293363-.7760032v-.0378536c.018927-.9841957-.785464-2.0440988-1.46683-2.7538553-.757074-.7949273-1.533074-1.3438057-1.542538-1.3438057-2.044098-1.5141472-4.230149-2.2806843-6.520296-2.2806843-2.3469285.0094634-3.9367831.832781-3.95571.8422444zm7.419322 2.6592211c.283902 0 .511024.2271221.511024.5110247s-.227122.5110247-.511024.5110247c-.283903 0-.511025-.2271221-.511025-.5110247s.227122-.5110247.511025-.5110247zm-6.6054678-1.9400011c.075707 0 .1230244.018927.1419513.018927l3.2270265 1.0031223-.123025.2555124-1.5425371-.4826344-1.6371718-.5110247c-.00946 0-.00946 0-.018927-.00946-.00946 0-.02839-.00946-.047317-.00946s-.047317 0-.066244.00946c-.293366.075707-1.0977567.35961-1.3343422.7854639-.066244.1230245-.075707.2460489-.037854.3785368 0 .00946.1703416.539415.5961955 1.0882934l2.1387334-.1041012 1.4289762-.0662439-.141951.293366-3.5487827.1703416c-.5299515-.6435126-.7381468-1.2870252-.7381468-1.2870252-.3312197-1.0409762 1.5709278-1.5236106 1.5709278-1.5236106.037854 0 .094634-.00946.1324879-.00946zm11.2236168 15.7471312c2.176586-.946342 3.104002-2.583514 3.104002-2.583514 2.034635-2.772782 1.343805-5.696979 1.343805-5.696979-1.296488 2.8201-2.479416 3.5961-2.479416 3.5961 3.189173-4.8547345.01893-7.7883948.01893-7.7883948 1.296489 2.7633183-.425854 6.1322968-.425854 6.1322968-1.447903 3.047221-3.501465 4.135514-3.501465 4.135514 2.290147.425854 3.974636-1.116683 3.974636-1.116683-3.283807 3.548782-6.842053 3.378441-6.842053 3.378441 1.495221 1.675025 3.738051 1.533074 3.738051 1.533074-2.93366.690829-5.687515-.283903-7.949273-2.167124-.4258537-.350146-.8327808-.728683-1.2113177-1.13561 0 0-.3406831-.35961-.4069271-.454244l-.00946-.0095c-.047317 1.750733 1.7791228 3.378441 1.7791228 3.378441-2.2901475-.946342-3.3405871-2.999904-3.3405871-2.999904s-1.5425375-2.630831-.4258539-5.630735c1.1072201-2.9620505 4.409953-3.6244898 4.495124-3.6434166.01893.00946.02839.018927.04732.018927-.01893-.00946-.02839-.018927-.04732-.02839 0 0-.511024-.2176586-.80439-.3596099-.293372-.1419158-1.1450804-.4542087-1.1450804-.4542087-.6435126-.1892684-1.2491715-.2744392-1.7980498-.2744392-2.791709 0-4.277466 2.1103429-4.277466 2.1103429-1.3154154 1.4762935-1.6277083 3.3879045-1.6277083 3.3879045-.3690734 1.82644.02839 3.747514.02839 3.747514s.037854.151415.047317.217659c.3028294.71922.6908297 1.428976 1.1450738 2.100879 2.4604893 3.671807 6.4540526 4.939906 6.4540526 4.939906 5.9146381 2.006245 9.9555191-.946342 9.9555191-.946342 3.719124-2.555124 4.466734-5.507711 4.466734-5.507711-3.009368 2.337465-4.305856 2.119806-4.305856 2.119806zm-18.1319136-3.861075s-.2365855-.71922-.35960995-1.816977v.03785c0-.01893 0-.03785-.009463-.06624-.009463-.07571-.0189268-.160878-.0283903-.236586 0 0-.13248788-1.287025.15141475-2.697075 0 0 .00946-.03785.018927-.09463.037854-.1798055.075707-.3690735.1230245-.5488785 0-.0095 0-.01893.00946-.02839.085171-.369073.2081952-.813854.3312197-1.173464 0 0 1.305952-4.2869294 5.7253693-6.2458574 0 0 1.5236106-.8043907 3.8232216-.8611712 0 0-.312293-.30282945-.511025-.43531735-1.0788266-.719224-2.6876081-.9558095-3.6623404.0567765-.293366.30282935-.5394149.63404915-.8138541.93687855-.3122929.3406831-.6908297.6245857-1.126147.7854639-.3785369.1419513-.7570737.113561-1.1450739.179805-.3974636.0662439-.8043907.2081952-1.126147.4637076-.3501466.2839026-.4920979.6624394-.5299515 1.0977567-.0378537.3406831-.0283903.6908297-.0473171 1.0315128-.0473171 1.0031226-.3690734 1.2870252-1.0882934 1.845367-.3028294.227122-.55834175.5299515-.74761016.8517078-.56780521 1.0031221.34068313 2.0440986.38800023 3.0566846.009463.208195-.009463.416391-.0851708.615122-.0757074.217659-.22712208.35961-.35014655.539415-.17034156.236586-.2839026.520489-.2365855.813855s.19873182.567805.34068313.823317c.27443918.454244.61512232.861171.97473225 1.249172.018927.01893.037854.03785.056781.06624 0-.0095-.00946-.01893-.00946-.02839l.02839.08517c-.02839-.104098-.05678-.198732-.094634-.302829zm-.2365855-.974733c0 .01893.00946.03785.00946.04732 0 .0095 0 .01893.00946.03785-.00946-.02839-.00946-.05678-.018927-.08517z"/></svg>